<svg xmlns="http://www.w3.org/2000/svg" viewBox="0 0 90 90">
  <defs>
    <style>
      .cls-1 {
        fill: #009246;
      }

      .cls-2 {
        fill: #fff;
      }

      .cls-3 {
        fill: #ce2b37;
      }
    </style>
  </defs>
  <title>logo</title>
  <g id="Livello_2" data-name="Livello 2">
    <g id="Livello_1-2" data-name="Livello 1">
      <g>
        <path class="cls-1" d="M82,13a3,3,0,0,1-3,3H71a3,3,0,0,1-3-3V6H66v7a3,3,0,0,1-3,3H58v5h2a3,3,0,0,1,3,3v6.94h2V24a3,3,0,0,1,3-3H78a3,3,0,0,1,3,3V63h3V6H82Z"/>
        <path class="cls-2" d="M71,33.94a3,3,0,0,1-3,3H60a3,3,0,0,1-3-3V27H53v6.94a3,3,0,0,1-3,3H40a3,3,0,0,1-3-3V27H33v6.94a3,3,0,0,1-3,3H22a3,3,0,0,1-3-3V27H15V84H32V75a17,17,0,0,1,3-10.12A12.25,12.25,0,0,1,45,60a12.25,12.25,0,0,1,10,4.88A17,17,0,0,1,58,75v9H75V27H71Z"/>
        <path class="cls-3" d="M25,24v6.94h2V24a3,3,0,0,1,3-3h2V16H27a3,3,0,0,1-3-3V6H22v7a3,3,0,0,1-3,3H11a3,3,0,0,1-3-3V6H6V63H9V24a3,3,0,0,1,2.69-3H22A3,3,0,0,1,25,24Z"/>
        <path d="M87,0H79a3,3,0,0,0-3,3v7H74V3a3,3,0,0,0-3-3H62.69A3,3,0,0,0,60,3v7H55a3,3,0,0,0-3,3v8H50a3,3,0,0,0-3,3v6.94H43V24a3,3,0,0,0-3-3H38V13a3,3,0,0,0-3-3H30V3a3,3,0,0,0-3-3H19a3,3,0,0,0-3,3v7H14V3a3,3,0,0,0-3-3H2.69A3,3,0,0,0,0,3V66a3,3,0,0,0,3,3H9V87a3,3,0,0,0,3,3H35a3,3,0,0,0,3-3V75a11.49,11.49,0,0,1,1.78-6.59C40.9,66.87,42.32,66,45,66s4.1.87,5.22,2.41A11.49,11.49,0,0,1,52,75V87a3,3,0,0,0,3,3H78a3,3,0,0,0,3-3V69h6a3,3,0,0,0,3-3V3A3,3,0,0,0,87,0ZM11.69,21A3,3,0,0,0,9,24V63H6V6H8v7a3,3,0,0,0,3,3h8a3,3,0,0,0,3-3V6h2v7a3,3,0,0,0,3,3h5v5H30a3,3,0,0,0-3,3v6.94H25V24a3,3,0,0,0-3-3H11.69ZM75,84H58V75a17,17,0,0,0-3-10.12A12.25,12.25,0,0,0,45,60a12.25,12.25,0,0,0-10,4.88A17,17,0,0,0,32,75v9H15V27h4v6.94a3,3,0,0,0,3,3h8a3,3,0,0,0,3-3V27h4v6.94a3,3,0,0,0,3,3H50a3,3,0,0,0,3-3V27h4v6.94a3,3,0,0,0,3,3h8a3,3,0,0,0,3-3V27h4Zm9-21H81V24a3,3,0,0,0-3-3H68a3,3,0,0,0-3,3v6.94H63V24a3,3,0,0,0-3-3H58V16h5a3,3,0,0,0,3-3V6h2v7a3,3,0,0,0,3,3h8a3,3,0,0,0,3-3V6h2Z"/>
      </g>
    </g>
  </g>
</svg>
